D:\school\WTK\thesis\model\3dpredictsim\Results\debug_batch\Pog_s1_tmt_aCst_d05_k2000_ig24_act_TTC_GRF.mot
nRows=27
nColumns=19

name D:\school\WTK\thesis\model\3dpredictsim\Results\debug_batch\Pog_s1_tmt_aCst_d05_k2000_ig24_act_TTC_GRF.mot
datacolumns 19
datarows 27
range 0.6065671509 0.9219820694
endheader
time 	ground_force_vx	ground_force_vy	ground_force_vz	ground_force_px	ground_force_py	ground_force_pz	1_ground_force_vx	1_ground_force_vy	1_ground_force_vz	1_ground_force_px	1_ground_force_py	1_ground_force_pz	ground_torque_x	ground_torque_y	ground_torque_z	1_ground_torque_x	1_ground_torque_y	1_ground_torque_z
        0.6065671509	      108.6100891187	      424.2730160525	        1.8412895020	        0.4036992105	        0.0000000000	        0.0335369581	      -56.1256282114	       44.1174729440	      -15.2301448332	        0.9420169385	        0.0000000000	       -0.0523986851	        0.0000000000	        0.0000000000	        0.0000000000	        0.0000000000	        0.0000000000	        0.0000000000	
        0.6186984939	       72.6254363319	      321.4427202883	        8.4603005027	        0.4115024425	        0.0000000000	        0.0303171017	     -127.5251575255	      132.0179312524	      -49.8803476150	        0.9502362433	        0.0000000000	       -0.0503706371	        0.0000000000	        0.0000000000	        0.0000000000	        0.0000000000	        0.0000000000	        0.0000000000	
        0.6308298370	       38.9704307446	      212.6866550017	       14.6697169633	        0.4250916605	        0.0000000000	        0.0242475416	      -64.0141826772	      315.0307499064	      -17.3183798205	        0.9563323993	        0.0000000000	       -0.0484346079	        0.0000000000	        0.0000000000	        0.0000000000	        0.0000000000	        0.0000000000	        0.0000000000	
        0.6429611800	       26.2832935167	      165.0623318023	       14.4590522564	        0.4302868631	        0.0000000000	        0.0215919197	      -62.0078200072	      532.6765522347	        6.3224455459	        0.9613150884	        0.0000000000	       -0.0487258503	        0.0000000000	        0.0000000000	        0.0000000000	        0.0000000000	        0.0000000000	        0.0000000000	
        0.6550925230	       21.6889256055	      121.3728949532	       16.1234707928	        0.4307239474	        0.0000000000	        0.0218266731	     -111.2001888116	      773.2881324066	       17.0856848842	        0.9717660954	        0.0000000000	       -0.0511107040	        0.0000000000	        0.0000000000	        0.0000000000	        0.0000000000	        0.0000000000	        0.0000000000	
        0.6672238660	        9.6363894741	       66.6920707945	       14.6900954890	        0.4308676083	        0.0000000000	        0.0221707142	     -140.6718363034	      894.9864117829	       21.8167321727	        0.9788184183	        0.0000000000	       -0.0526291892	        0.0000000000	        0.0000000000	        0.0000000000	        0.0000000000	        0.0000000000	        0.0000000000	
        0.6793552090	       -3.6688844666	       10.0099594788	        2.9947161483	        0.4282615302	        0.0000000000	        0.0220080500	     -143.5082070014	      909.8726986214	       21.8707834152	        0.9833687030	        0.0000000000	       -0.0534783848	        0.0000000000	        0.0000000000	        0.0000000000	        0.0000000000	        0.0000000000	        0.0000000000	
        0.6914865520	        0.0019711078	       -0.0017418447	        0.0000318657	        0.0000000000	        0.0000000000	        0.0000000000	     -130.0977842697	      874.9443773402	       21.2170649284	        0.9871748382	        0.0000000000	       -0.0539312990	        0.0000000000	        0.0000000000	        0.0000000000	        0.0000000000	        0.0000000000	        0.0000000000	
        0.7036178951	        0.0008908762	       -0.0006633786	        0.0000480783	        0.0000000000	        0.0000000000	        0.0000000000	     -113.6684627088	      821.1630008134	       20.0070959463	        0.9911676216	        0.0000000000	       -0.0540662268	        0.0000000000	        0.0000000000	        0.0000000000	        0.0000000000	        0.0000000000	        0.0000000000	
        0.7157492381	        0.0067844658	       -0.0044092046	        0.0004671238	        0.0000000000	        0.0000000000	        0.0000000000	     -100.2342040508	      771.5362880462	       19.1157124187	        0.9956088492	        0.0000000000	       -0.0539794341	        0.0000000000	        0.0000000000	        0.0000000000	        0.0000000000	        0.0000000000	        0.0000000000	
        0.7278805811	       -0.0753341576	        0.0443075835	       -0.0056979461	        0.0000000000	        0.0000000000	        0.0000000000	      -89.4873634373	      734.5695317215	       19.1410472855	        1.0007401678	        0.0000000000	       -0.0536948047	        0.0000000000	        0.0000000000	        0.0000000000	        0.0000000000	        0.0000000000	        0.0000000000	
        0.7400119241	       -0.2041570891	        0.1113603714	       -0.0161287697	        0.0000000000	        0.0000000000	        0.0000000000	      -79.4609400884	      702.9153453756	       19.5005002851	        1.0059295758	        0.0000000000	       -0.0533238936	        0.0000000000	        0.0000000000	        0.0000000000	        0.0000000000	        0.0000000000	        0.0000000000	
        0.7521432671	       -0.1250700139	        0.0646000948	       -0.0096918254	        0.0000000000	        0.0000000000	        0.0000000000	      -69.5142803654	      674.4924584703	       19.6472563676	        1.0107177467	        0.0000000000	       -0.0530193510	        0.0000000000	        0.0000000000	        0.0000000000	        0.0000000000	        0.0000000000	        0.0000000000	
        0.7642746102	       -0.0788939102	        0.0389721517	       -0.0061200437	        0.0000000000	        0.0000000000	        0.0000000000	      -60.1571831035	      650.1809410719	       20.2826860272	        1.0152410910	        0.0000000000	       -0.0527880637	        0.0000000000	        0.0000000000	        0.0000000000	        0.0000000000	        0.0000000000	        0.0000000000	
        0.7764059532	       -0.0603604797	        0.0287041508	       -0.0046855752	        0.0000000000	        0.0000000000	        0.0000000000	      -51.6580514122	      629.9651280275	       20.7661617140	        1.0197054469	        0.0000000000	       -0.0526163027	        0.0000000000	        0.0000000000	        0.0000000000	        0.0000000000	        0.0000000000	        0.0000000000	
        0.7885372962	       -0.0571232522	        0.0263112478	       -0.0044494272	        0.0000000000	        0.0000000000	        0.0000000000	      -44.1603645778	      613.7568081182	       20.9888564776	        1.0241957475	        0.0000000000	       -0.0524711187	        0.0000000000	        0.0000000000	        0.0000000000	        0.0000000000	        0.0000000000	        0.0000000000	
        0.8006686392	       -0.0650862731	        0.0291697043	       -0.0050334250	        0.0000000000	        0.0000000000	        0.0000000000	      -37.3742371285	      600.9762105135	       21.0320738957	        1.0288505418	        0.0000000000	       -0.0523185130	        0.0000000000	        0.0000000000	        0.0000000000	        0.0000000000	        0.0000000000	        0.0000000000	
        0.8127999822	       -0.0867430441	        0.0379499784	       -0.0066083164	        0.0000000000	        0.0000000000	        0.0000000000	      -31.3694916153	      591.7777122288	       20.8583265910	        1.0339217526	        0.0000000000	       -0.0521110667	        0.0000000000	        0.0000000000	        0.0000000000	        0.0000000000	        0.0000000000	        0.0000000000	
        0.8249313252	       -0.1309490449	        0.0560336842	       -0.0097619949	        0.0000000000	        0.0000000000	        0.0000000000	      -26.9475884221	      586.2881226469	       20.5289442002	        1.0394576364	        0.0000000000	       -0.0518114867	        0.0000000000	        0.0000000000	        0.0000000000	        0.0000000000	        0.0000000000	        0.0000000000	
        0.8370626683	       -0.2135245799	        0.0895325021	       -0.0154154015	        0.0000000000	        0.0000000000	        0.0000000000	      -23.4246047920	      583.6649041429	       19.9769567674	        1.0452890223	        0.0000000000	       -0.0514215367	        0.0000000000	        0.0000000000	        0.0000000000	        0.0000000000	        0.0000000000	        0.0000000000	
        0.8491940113	       -0.3559308860	        0.1465852526	       -0.0246793446	        0.0000000000	        0.0000000000	        0.0000000000	      -20.2844062120	      583.0374872710	       19.4674806316	        1.0513431296	        0.0000000000	       -0.0509475348	        0.0000000000	        0.0000000000	        0.0000000000	        0.0000000000	        0.0000000000	        0.0000000000	
        0.8613253543	       -0.5764288661	        0.2337261393	       -0.0382520583	        0.0000000000	        0.0000000000	        0.0000000000	      -17.4076679598	      582.6058412363	       19.4580771612	        1.0574185126	        0.0000000000	       -0.0504206962	        0.0000000000	        0.0000000000	        0.0000000000	        0.0000000000	        0.0000000000	        0.0000000000	
        0.8734566973	       -0.8744377166	        0.3499038121	       -0.0555170651	        0.0000000000	        0.0000000000	        0.0000000000	      -14.5251710088	      580.9884702826	       19.5274018033	        1.0633636884	        0.0000000000	       -0.0498790695	        0.0000000000	        0.0000000000	        0.0000000000	        0.0000000000	        0.0000000000	        0.0000000000	
        0.8855880403	       -1.2135171286	        0.4803708188	       -0.0738096393	        0.0000000000	        0.0000000000	        0.0000000000	      -11.6347364507	      578.2996641254	       19.5885508618	        1.0691735446	        0.0000000000	       -0.0493315146	        0.0000000000	        0.0000000000	        0.0000000000	        0.0000000000	        0.0000000000	        0.0000000000	
        0.8977193834	       -1.5294366087	        0.6003097667	       -0.0891371618	        0.0000000000	        0.0000000000	        0.0000000000	       -8.7446125461	      574.4939708333	       19.5225060749	        1.0748206308	        0.0000000000	       -0.0487871824	        0.0000000000	        0.0000000000	        0.0000000000	        0.0000000000	        0.0000000000	        0.0000000000	
        0.9098507264	       -1.7653508953	        0.6883343055	       -0.0979039780	        0.0000000000	        0.0000000000	        0.0000000000	       -5.8385585837	      569.9383787750	       19.0848529463	        1.0803153056	        0.0000000000	       -0.0482478309	        0.0000000000	        0.0000000000	        0.0000000000	        0.0000000000	        0.0000000000	        0.0000000000	
        0.9219820694	       -1.9050868076	        0.7388105124	       -0.0987118590	        0.0000000000	        0.0000000000	        0.0000000000	       -2.8296339571	      564.8294083348	       17.8942699734	        1.0856889190	        0.0000000000	       -0.0477105155	        0.0000000000	        0.0000000000	        0.0000000000	        0.0000000000	        0.0000000000	        0.0000000000	
